<svg version="1.1" xmlns="http://www.w3.org/2000/svg" xmlns:xlink="http://www.w3.org/1999/xlink" width="116.25877" height="199.27478" viewBox="0,0,116.25877,199.27478"><g transform="translate(-181.90788,-77.25139)"><g data-paper-data="{&quot;isPaintingLayer&quot;:true}" fill-rule="nonzero" stroke-linejoin="miter" stroke-miterlimit="10" stroke-dasharray="" stroke-dashoffset="0" style="mix-blend-mode: normal"><path d="M193.83418,230.60951c0,0 31.30566,6.66666 46.75,6.66666c15.38879,0 45.75,-6.66666 45.75,-6.66666c0,0 0,3.86286 0,8.5334c-1.74395,-0.08847 -3.48979,-0.23006 -5.25,-0.45008c-18.68863,-2.33608 -37.66668,-0.33139 -56.5,-0.5c-4.355,-0.03899 -9.07416,-1.30953 -13.5,-1.5c-6.39182,-0.27507 -11.71901,-0.41562 -17.25,-0.48742c0,-3.24803 0,-5.5959 0,-5.5959z" fill="#c5ffff" stroke="#000000" stroke-width="2" stroke-linecap="butt"/><path d="M273.33678,258.16213c3.36111,0.36132 6.6975,0.92139 10.05754,0.99134c-0.58408,0.1722 -1.29372,0.28936 -2.14346,0.28936c-3.21468,0 -7.76398,0 -13.09103,0c0.20579,-0.37121 0.35703,-0.79997 0.4436,-1.29404c1.63121,0.00239 3.21383,0.0067 4.73336,0.01334z" fill="#b4abab" stroke="#000000" stroke-width="2" stroke-linecap="butt"/><path d="M206.24801,209.79753l0.66951,-1.1047l0.33333,-23.66667l-13.66666,-28.33333c0,0 29.21109,-5.33334 44.33334,-5.33334c15.84407,0 48.66666,5.33334 48.66666,5.33334l-12.33334,28.66667l-0.66666,24.66666l0.17886,0.28242" fill="none" stroke="#000000" stroke-width="2" stroke-linecap="round"/><path d="M284.72702,227.62011l1.52383,2.40605c0,0 -30.72781,6.89493 -46.33568,7.00722c-15.27379,0.10988 -46.33099,-6.34055 -46.33099,-6.34055l0.9576,-1.58004" fill="none" stroke="#000000" stroke-width="2" stroke-linecap="round"/><path d="M206.91752,209.56783v-25c0,0 4.77166,3.33334 8.66666,3.33334c4.19199,0 14.31837,-0.33334 25,-0.33334c9.16955,0 18.08162,-1.33333 24.66666,-1.33333c5.04538,0 8.33334,-1.66667 8.33334,-1.66667v25c0,0 -23.62518,-2.66666 -35,-2.66666c-10.81961,0 -31.66666,2.66666 -31.66666,2.66666z" fill="#000000" stroke="#000000" stroke-width="2" stroke-linecap="butt"/><path d="M192.46258,236.18903c-0.9386,-8.35862 -1.98999,-19.40732 -2.01769,-27.16237c-0.05933,-16.61329 3.13929,-54.33383 3.13929,-54.33383" fill="none" stroke="#000000" stroke-width="2" stroke-linecap="round"/><path d="M285.91752,143.69283c0,0 3.48018,46.25767 3.54073,65.33268c0.02851,8.98028 -1.14828,21.58936 -2.08432,30.16406" fill="none" stroke="#000000" stroke-width="2" stroke-linecap="round"/><path d="M189.58418,142.3595c0,0 -2.21335,-8.28625 -1.87153,-13.0066c0.23338,-3.22291 1.87153,-10.32674 1.87153,-10.32674l3.33334,-4l0.66666,40z" fill="#c5ffff" stroke="#000000" stroke-width="2" stroke-linecap="butt"/><path d="M286.34345,153.3595l0.66666,-40l3.33334,4c0,0 1.63814,7.10383 1.87152,10.32674c0.34182,4.72034 -1.87152,13.0066 -1.87152,13.0066z" data-paper-data="{&quot;index&quot;:null}" fill="#c5ffff" stroke="#000000" stroke-width="2" stroke-linecap="butt"/><path d="M182.91752,224.02616c0,0 4.88888,-20.66666 6.33333,-20.66666c1.44445,0 0.66667,16.33333 0.66667,16.33333c0,0 2.33333,7.38377 2.33333,12c0,1.1887 0.07126,2.74811 0.18687,4.49593c-2.71815,-0.02961 -5.51006,-0.04419 -8.52281,-0.05135z" fill="#c5ffff" stroke="#000000" stroke-width="2" stroke-linecap="butt"/><path d="" fill="#a29a9a" stroke="#000000" stroke-width="2" stroke-linecap="butt"/><path d="M287.82368,232.3595c0,-4.61623 2.33333,-12 2.33333,-12c0,0 -0.77777,-16.33334 0.66667,-16.33334c1.44445,0 6.33333,20.66666 6.33333,20.66666l-1.19884,14.55732c-2.86778,0.03411 -5.68115,0.05047 -8.49242,-0.05702c0.21246,-2.68016 0.35792,-5.13526 0.35792,-6.83362z" data-paper-data="{&quot;index&quot;:null}" fill="#c5ffff" stroke="#000000" stroke-width="2" stroke-linecap="butt"/><path d="M285.50608,259.33305c-0.27562,0.01413 -0.47881,-0.03506 -0.62317,-0.13225c0.40855,0.00781 0.81802,0.00333 1.22804,-0.00908c-0.2316,0.08329 -0.43547,0.13263 -0.60487,0.14132z" data-paper-data="{&quot;index&quot;:null}" fill="#a29a9a" stroke="#000000" stroke-width="2" stroke-linecap="butt"/><path d="" fill="#000000" stroke="#000000" stroke-width="2" stroke-linecap="butt"/><path d="M208.58418,186.44283l-6,-12c0,0 23.64676,3.5 36,3.5c13.1026,0 40.5,-3.5 40.5,-3.5l-5,9c0,0 -4.54233,1.65637 -10.51147,2.40899c-6.8532,0.86409 -15.58716,0.85507 -21.48696,1.12529c-10.7891,0.49416 -33.50157,-0.53428 -33.50157,-0.53428z" fill="#000000" stroke="#000000" stroke-width="2" stroke-linecap="butt"/><text transform="translate(269.3487,180.67458) rotate(179.88528) scale(0.33962,0.18993) skewX(0.14082)" font-size="40" xml:space="preserve" fill="none" fill-rule="nonzero" stroke="none" stroke-width="1" stroke-linecap="butt" stroke-linejoin="miter" stroke-miterlimit="10" stroke-dasharray="" stroke-dashoffset="0" font-family="Marker" font-weight="normal" text-anchor="start" style="mix-blend-mode: normal"><tspan x="0" dy="0">g4m3rnn</tspan></text><path d="M193.68857,228.30066l-0.60439,0.64217c0,0 -0.10881,-0.7125 -0.27567,-1.9181" fill="none" stroke="#000000" stroke-width="0.5" stroke-linecap="butt"/><path d="M192.47312,224.50061c-0.58815,-4.61106 -1.38894,-11.92368 -1.38894,-17.55778c0,-13.005 2,-48.5 2,-48.5l6,9c0,0 2.12919,3.86371 4.48983,10.50361c0.9569,2.69153 3.6232,5.00353 3.60608,8.9968c-0.03507,8.17982 1.83131,16.0764 -0.09592,20.49959c-0.33054,0.75862 -0.65215,1.48989 -0.96359,2.19222" fill="none" stroke="#000000" stroke-width="0.5" stroke-linecap="butt"/><path d="M274.29193,209.8419c-0.27076,-0.61204 -0.54894,-1.2454 -0.83375,-1.89907c-1.92722,-4.42319 -0.06085,-12.31977 -0.09591,-20.49959c-0.01712,-3.99327 2.64918,-6.30527 3.60608,-8.9968c2.36064,-6.6399 4.48983,-10.50361 4.48983,-10.50361l6,-9c0,0 2,35.495 2,48.5c0,8.90391 -2,22 -2,22l-2.25489,-2.39582" data-paper-data="{&quot;index&quot;:null}" fill="none" stroke="#000000" stroke-width="0.5" stroke-linecap="butt"/><path d="M269.58418,272.44283v-13h11v13c0,0 -4.16666,-3 -6,-3c-1.83334,0 -5,3 -5,3z" fill="#000000" stroke="#000000" stroke-width="0.5" stroke-linecap="butt"/><path d="M280.75085,272.60949c0,0 -3.64289,3.55772 -5.50374,3.58592c-1.80406,0.02733 -5.49626,-3.41925 -5.49626,-3.41925v-6.5c0,0 3.52972,-2.55776 5.3346,-2.58596c1.74892,-0.02732 5.33208,2.41929 5.33208,2.41929z" fill="none" stroke="#000000" stroke-width="0.5" stroke-linecap="round"/><path d="M269.58418,272.44283v-6.16666c0,0 3.52862,-2.33334 5.33334,-2.33334c1.86026,0 5.66666,2.33334 5.66666,2.33334v6.16666c0,0 -3.83333,-3 -5.66666,-3c-1.83334,0 -5.33334,3 -5.33334,3z" fill="#193f80" stroke="#000000" stroke-width="0.5" stroke-linecap="butt"/><path d="M274.91752,269.44283c2.39324,0 5.5,1.69636 5.5,3.58334c0,1.88698 -3.10676,3.25 -5.5,3.25c-2.39323,0 -5.16667,-1.52969 -5.16667,-3.41667c0,-1.88698 2.77343,-3.41667 5.16667,-3.41667z" fill="#ca0000" stroke="#000000" stroke-width="0.5" stroke-linecap="butt"/><path d="M274.50085,270.77617c0.78241,0 3.41667,1.76362 3.41667,2.5c0,0.73638 -1.96759,1.83333 -2.75,1.83333c-0.78241,0 -3.25,-1.09695 -3.25,-1.83333c0,-0.73638 1.80092,-2.5 2.58333,-2.5z" fill="#000000" stroke="#000000" stroke-width="0.5" stroke-linecap="butt"/><path d="" fill="#b4abab" stroke="#110808" stroke-width="2" stroke-linecap="butt"/><path d="M268.01241,259.68526l0.57178,0.00758v14.5l-63.5,-0.5l-1.6048,-0.36314" fill="none" stroke="#110808" stroke-width="2" stroke-linecap="butt"/><path d="M281.08418,274.19283v-14l5.3064,-1.01074c1.63041,-0.06273 3.2682,-0.23493 4.89018,-0.24238l-6.19658,15.25312z" fill="none" stroke="#110808" stroke-width="2" stroke-linecap="butt"/><path d="M204.21428,273.32998l-7.71428,-0.14285l-9.95982,-23.78344c-1.68181,-4.63877 -3.37879,-9.79097 -3.42061,-11.79791c-0.08328,-3.99739 10.25033,-2.48438 10.25033,-2.48438c0,0 31.99538,4 47,4c16.08664,0 46.5,-4 46.5,-4c0,0 9,2.66667 9,6.5c0,1.41714 -0.68335,4.10986 -1.54479,6.94134l-3.68225,13.05296" fill="none" stroke="#000000" stroke-width="2" stroke-linecap="butt"/><path d="M272.78476,258.10472l-4.17043,-0.02065" fill="none" stroke="#110808" stroke-width="2" stroke-linecap="butt"/><path d="M270.08418,116.65628v27.03655h-57.5v-25.25317" fill="none" stroke="none" stroke-width="2" stroke-linecap="butt"/><path d="M269.08418,121.19283l-23.18526,-0.20888" fill="none" stroke="none" stroke-width="2" stroke-linecap="round"/><path d="M237.84705,120.91142l-24.26287,-0.21859" fill="none" stroke="none" stroke-width="2" stroke-linecap="round"/><path d="M213.58418,129.69283l55.5,0.5" fill="none" stroke="none" stroke-width="2" stroke-linecap="round"/><path d="M212.58418,138.19283l57.5,1" fill="none" stroke="none" stroke-width="2" stroke-linecap="round"/><path d="M282.18373,229.68687l1.90045,0.50596" fill="none" stroke="#000000" stroke-width="2" stroke-linecap="round"/><path d="M210.85055,210.69556l-3.76637,-1.00273l3.80476,0.97558" fill="none" stroke="#000000" stroke-width="2" stroke-linecap="round"/><path d="M285.08418,229.69283l-2.05773,-0.52762" fill="none" stroke="#000000" stroke-width="2" stroke-linecap="round"/><path d="M191.51828,204.56891l-1.9341,-0.37608" fill="none" stroke="#000000" stroke-width="2" stroke-linecap="round"/><path d="M205.80235,207.34636l1.78183,0.34647" fill="none" stroke="#000000" stroke-width="2" stroke-linecap="round"/><path d="M273.58418,208.19283l1.41408,-0.42422" fill="none" stroke="#000000" stroke-width="2" stroke-linecap="round"/><path d="M285.39918,103.49703c0.52069,0.78246 0.935,1.71364 0.935,2.6958c0,8.14934 0,49.91666 0,49.91666c0,0 -31.93951,-5.66666 -47.75,-5.66666c-14.97777,0 -44.75,5.66666 -44.75,5.66666v0.00001c0,0 0,-42.78106 0,-50.58334c0,-0.60755 0.11153,-1.16286 0.27689,-1.65232l13.2463,-17.63592l0.39263,-0.49834c0,0 20.54476,-8.32354 31.00019,-8.48819c10.70533,-0.16859 32.49981,7.48819 32.49981,7.48819l1.63184,2.11535z" fill="#c5ffff" stroke="#000000" stroke-width="2" stroke-linecap="round"/><path d="M203.6875,113.87239v-16.125h14.75v16.125z" fill="#c5ffff" stroke="#000000" stroke-width="2" stroke-linecap="butt"/><path d="M259.6875,113.9974v-16.125h14.75v16.125z" fill="#c5ffff" stroke="#000000" stroke-width="2" stroke-linecap="butt"/><path d="M279.9375,97.12239c0,0 -10.49993,-0.02449 -21.25022,-0.05925c-1.00247,-0.00324 -0.22775,0.85387 -0.13885,2.15969c0.10827,1.59054 -0.31734,3.84678 -0.11358,6.02482c0.45439,4.85699 0.00259,9.63738 0.00259,9.63738c0,0 -23.61425,-0.01541 -24.87565,-0.02321c-1.15526,-0.00715 -3.1184,-0.11978 -5.36886,0.07369c-1.07563,0.09247 -1.79714,-0.12476 -2.75596,-0.13437c-0.57859,-0.0058 -1.56153,0.38193 -1.85902,0.05711c-0.3402,-0.37145 -3.52735,-0.03944 -3.81372,-0.48928c-0.6145,-0.96529 0.26473,-3.70221 -0.13472,-4.81547c-0.28385,-0.79109 -0.11796,-1.60982 -0.10754,-2.4332c0.01884,-1.48787 0.09638,-2.99091 0.11196,-4.37351c0.0378,-3.35413 -0.32143,-5.9994 -0.32143,-5.9994l-18.375,-0.25" fill="none" stroke="#000000" stroke-width="0.5" stroke-linecap="round"/><path d="M206.6875,94.99739v-2.875h12.5v2.875z" fill="#c5ffff" stroke="#000000" stroke-width="0.5" stroke-linecap="butt"/><path d="M258.9375,95.2474v-2.875h12.5v2.875z" fill="#c5ffff" stroke="#000000" stroke-width="0.5" stroke-linecap="butt"/><path d="M202.9375,173.37239l-7.75,-16c0,0 30.87897,-5.125 45.125,-5.125c13.91274,0 44.5,5.25 44.5,5.25l-6.875,16.25c0,0 -5.90793,0.8883 -14.11242,1.34898c-6.94459,0.38994 -15.53266,1.86717 -21.26289,1.83852c-5.21389,-0.02607 -14.31454,-0.45448 -21.25799,-0.94504c-9.70299,-0.68553 -18.3667,-2.61746 -18.3667,-2.61746z" fill="#252525" stroke="#252525" stroke-width="0.5" stroke-linecap="butt"/><path d="M191.8125,216.24739c0,0 -0.38913,-5.68566 -0.31506,-11.75232c0.03716,-3.04322 0.31506,-6.3073 0.31506,-8.87268c0,-10.13206 2.25,-35.125 2.25,-35.125l11.75,23.75c0,0 0.23614,15.2997 -0.06217,21.12822c-0.07601,1.48521 0.45968,3.2322 0.21322,4.87569c-0.4576,3.05143 -1.77605,5.74609 -1.77605,5.74609z" fill="#252525" stroke="#252525" stroke-width="0.5" stroke-linecap="butt"/><path d="M274.1875,219.24739l1.375,-34.125l10.5,-24.25c0,0 1.39416,17.55347 1.72285,26.51017c0.19036,5.18724 0.75418,13.41889 0.77363,19.61523c0.01506,4.79729 -0.49648,8.3746 -0.49648,8.3746z" fill="#252525" stroke="#252525" stroke-width="0.5" stroke-linecap="butt"/><path d="M203.1875,231.49739c0,0 -6.30981,-0.46953 -9.26335,-1.97936c-1.03652,-0.52986 -1.11165,-1.62626 -1.11165,-2.27064c0,-1.34171 -2.1868,-12.07173 0.05312,-15.21211c3.06583,-4.29832 10.82188,-1.03789 10.82188,-1.03789c0,0 24.73975,-3 36.75,-3c11.94775,0 35.125,3 35.125,3c0,0 10.55436,0.88962 12.50255,4.17435c1.07889,1.81907 0.27853,8.08695 -0.59171,11.58456c-0.36911,1.48348 -1.16084,2.36608 -1.16084,2.36608c0,0 -33.07811,6.75 -44.875,6.75c-12.15097,0 -38.25,-4.375 -38.25,-4.375z" fill="#252525" stroke="#252525" stroke-width="0.5" stroke-linecap="butt"/><path d="M201.6875,219.12239v-16c0,0 2.15979,-1.32633 6.00617,-1.39276c2.43624,-0.04207 10.89645,6.91983 11.61696,6.90762c0.46714,-0.00792 -7.49813,-1.51486 -7.49813,-1.51486c0,0 8.37111,2.0187 8.27744,3.75821c-0.16037,2.97836 -4.52744,8.24179 -4.52744,8.24179z" fill="#252525" stroke="#252525" stroke-width="0.5" stroke-linecap="butt"/><path d="M265.96573,219.6224c0,0 -4.36707,-5.26343 -4.52744,-8.24179c-0.09366,-1.73951 8.27745,-3.75821 8.27745,-3.75821c0,0 -7.96527,1.50694 -7.49813,1.51486c0.72052,0.01221 9.18073,-6.94969 11.61696,-6.90762c3.84638,0.06643 6.00617,1.39276 6.00617,1.39276v16z" data-paper-data="{&quot;index&quot;:null}" fill="#252525" stroke="#252525" stroke-width="0.5" stroke-linecap="butt"/><path d="M218.8125,208.49739l-11.75,-6.75l-0.25,-6.125" fill="none" stroke="#000000" stroke-width="2" stroke-linecap="round"/><path d="M273.8125,197.99739l-0.25,5l-9.875,5.625l-2.75,-0.375" fill="none" stroke="#000000" stroke-width="2" stroke-linecap="round"/><path d="M273.28381,203.76994c-0.3823,1.1469 -5.719,3.82526 -6.61515,2.257c-0.73685,-0.43488 -1.23117,-1.23698 -1.23117,-2.15454c0,-1.38071 1.11929,-2.5 2.5,-2.5c0.13565,0 0.26877,0.0108 0.39856,0.0316c2.89255,-1.70865 6.57438,-2.51393 4.94775,2.36595z" fill="#000000" stroke="none" stroke-width="0.5" stroke-linecap="butt"/><path d="M206.1875,201.99739l-13.25,27.75" fill="none" stroke="#000000" stroke-width="0.5" stroke-linecap="round"/><path d="M274.4375,203.49739l13.5,27.125" fill="none" stroke="#000000" stroke-width="0.5" stroke-linecap="round"/><path d="M197.81141,253.31842v0.30121h-8.30248l4.74428,-13.03294h3.5582v6.92344l0.13837,-0.00594v-0.27325h82.60968v0.17757l0.41513,0.04431v-6.61058l5.69313,0.21904l4.82334,12.68613h-10.51647v-0.3384l-0.41513,-0.02815v0.111h-82.60968v-0.1817z" fill="#7b0000" stroke="#000000" stroke-width="0.5" stroke-linecap="butt"/><path d="M193.07143,253.90142h98.85714v4.42857h-97.36618c-0.48181,-0.85329 -0.95282,-1.53755 -1.49096,-2.08623z" fill="#c5ffff" stroke="#000000" stroke-width="0.5" stroke-linecap="butt"/><path d="M197.92857,263.32999l-2.41458,-2.64095l-0.32707,-1.18012c-0.21362,-0.42415 -0.41939,-0.81551 -0.62322,-1.17662l73.22201,0.14054v4.85715z" fill="#c5ffff" stroke="#000000" stroke-width="0.5" stroke-linecap="butt"/><path d="M198.21429,247.04427l0.28572,-10c0,0 27.43153,2.85714 41,2.85714c7.35215,0 18.60847,-0.64371 27.55469,-1.24792c7.91175,-0.53435 14.30246,0.96221 14.30246,0.96221l-0.85715,7.42857z" fill="#c5ffff" stroke="none" stroke-width="0" stroke-linecap="butt"/><path d="M189.35715,253.04427c0,0 -2.43973,-5.36806 -3.29909,-8.04162c-0.8549,-2.65969 -1.84377,-7.95838 -1.84377,-7.95838c0,0 11.42724,-0.69232 13.87166,-0.05575c2.06142,0.53683 -0.15738,3.62717 -0.15738,3.62717l-3.42857,-0.42857z" fill="#c5ffff" stroke="none" stroke-width="0" stroke-linecap="butt"/><path d="M291.78572,253.6157c0,0 -4.57143,-10.44038 -4.57143,-12.71429c0,-0.72269 0.14286,-0.85714 0.14286,-0.85714h9l-4.42858,14.57143z" fill="#c5ffff" stroke="none" stroke-width="0" stroke-linecap="butt"/><path d="M280.78572,240.47284v-0.71428h7v0.71428z" fill="#c5ffff" stroke="none" stroke-width="0" stroke-linecap="butt"/><path d="M200.07143,241.82998l78.85714,1.28572" fill="none" stroke="#000000" stroke-width="2.5" stroke-linecap="round"/><path d="M199.35714,243.47284c0,0 0.07798,-2.10536 0.12153,-3.28121c0.05062,-1.36675 -7.12153,-4.14736 -7.12153,-4.14736l95,0.57143c0,0 -7.42857,1.7996 -7.42857,3.14286c0,1.27189 0,3.71429 0,3.71429z" fill="#c5ffff" stroke="#000000" stroke-width="2.5" stroke-linecap="butt"/><path d="M197.35714,271.90141l-7.42857,-18.14286l77.71429,0.57143l-0.14286,19c0,0 -39.28048,-0.19429 -52.14554,-0.3515c-7.55801,-0.09236 -17.99731,-1.07707 -17.99731,-1.07707z" fill="#c5ffff" stroke="none" stroke-width="0" stroke-linecap="butt"/><path d="M281.92857,273.47284l0.28571,-12.42857l7.42857,-1.28571l-5.28571,13.85714z" fill="#c5ffff" stroke="none" stroke-width="0" stroke-linecap="butt"/><path d="M288.92857,238.04427l0.14286,-7.85714l6.42857,1.28571l-0.42857,6.85714z" fill="#c5ffff" stroke="#000000" stroke-width="0" stroke-linecap="butt"/><path d="M196.5,272.6157c0,0 -1.07593,-3.04794 -1.21965,-4.86238c-0.21086,-2.66212 0.07679,-9.5662 0.07679,-9.5662h73.28571v16.28571z" fill="#c5ffff" stroke="#000000" stroke-width="1" stroke-linecap="butt"/><path d="M196.85714,199.18713c0.08416,-1.55374 1.74269,-2.74006 3.19135,-2.40318c0.30689,0.07137 0.60436,0.21109 0.87545,0.43016c0.07071,0.05714 0.13494,0.12367 0.19367,0.19798c0.4567,0.45297 0.73953,1.08097 0.73953,1.77503c0,0.08761 -0.00451,0.17417 -0.0133,0.25946c0.19968,0.74462 0.44592,1.34215 1.07445,1.23257c0.93116,-0.16234 2.70859,-0.12312 3.19778,0.97226c0.76173,1.70565 -0.53764,3.76541 -0.07807,4.8787c0.61922,1.50004 1.32802,2.71215 1.5983,4.3777c0.02297,0.14153 0.13093,0.48354 0.0485,0.63056c-1.54759,2.76052 -2.32782,1.35064 -4.54227,1.31984c-0.27506,-0.00383 -1.65964,3.0523 -1.93763,3.79497c-1.26136,3.36981 -3.14997,7.72579 -3.49063,11.24823c-0.12732,1.31651 -0.69998,2.5 -2.5,2.5c-3.28804,0 -2.75521,-4.11288 -2.23607,-6.18946c0.87501,-3.50006 2.87472,-7.86596 4.42857,-11.14286c0.59313,-1.25085 2.70502,-4.00112 2.83174,-5.29889c0.26283,-2.69157 -2.22574,-5.21249 -3.18153,-7.60196z" fill="#252525" stroke="none" stroke-width="0.5" stroke-linecap="butt"/><path d="M278.68673,206.46028c-0.03979,0.02504 1.19249,2.20358 1.32784,2.50771c0.77656,1.74492 1.44337,3.47733 1.99482,5.30423c1.00595,3.33261 7.4513,13.58922 4.03722,15.86527c-2.92747,1.95164 -4.57548,-4.09739 -5.44839,-5.84321c-2.19024,-4.38048 -3.53644,-9.32507 -5.37332,-13.87905c-0.75837,-1.88014 -2.53375,-3.21822 -2.23946,-5.30438c0.23438,-1.66153 2.72762,-2.7539 4.06583,-3.42301c0.34741,-0.18291 0.74312,-0.28642 1.16302,-0.28642c0.02963,0 0.05914,0.00052 0.08852,0.00154c3.0067,0.06587 3.10312,1.47798 2.39157,2.81548c-0.12613,0.99671 -0.8391,1.81047 -1.78178,2.08415c-0.07991,0.06064 -0.1557,0.11354 -0.22587,0.1577z" fill="#252525" stroke="none" stroke-width="0.5" stroke-linecap="butt"/><path d="M191.64286,208.32998l-1.57143,-7.28571l21.28571,-4.42857v6.57143z" fill="#000000" stroke="#000000" stroke-width="0.5" stroke-linecap="butt"/><path d="M268.92857,204.18713v-6.57143l20.71429,3.57143l-0.28571,6.85714z" fill="#000000" stroke="#000000" stroke-width="0.5" stroke-linecap="butt"/></g></g></svg>