<svg version="1.1" xmlns="http://www.w3.org/2000/svg" xmlns:xlink="http://www.w3.org/1999/xlink" width="124.65616" height="208.38474" viewBox="0,0,124.65616,208.38474"><g transform="translate(-177.16164,-75.81009)"><g data-paper-data="{&quot;isPaintingLayer&quot;:true}" fill-rule="nonzero" stroke-linejoin="miter" stroke-miterlimit="10" stroke-dasharray="" stroke-dashoffset="0" style="mix-blend-mode: normal"><path d="M193.46004,140.75858c0,0 0,-42.78106 0,-50.58334c0,-2.3486 1.66666,-3.91666 1.66666,-3.91666c0,0 0.47735,-0.66667 4.08334,-0.66667c16.65849,0 64.51746,0 76.33334,0c5.12038,0 7.41666,0.33334 7.41666,0.33334c0,0 3,2.27378 3,4.91667c0,8.14934 0,49.91666 0,49.91666c0,0 -31.93951,-5.66666 -47.75,-5.66666c-14.97777,0 -44.75,5.66666 -44.75,5.66666z" fill="#9ac4ce" stroke="#000000" stroke-width="2" stroke-linecap="butt"/><path d="M239.1329,221.18248c-15.27379,0.10988 -46.33099,-6.34055 -46.33099,-6.34055l13.33334,-22l0.33333,-23.66667l-13.66666,-28.33333c0,0 29.21109,-5.33334 44.33334,-5.33334c15.84407,0 48.66666,5.33334 48.66666,5.33334l-12.33334,28.66667l-0.66666,24.66666l12.66666,20c0,0 -30.72781,6.89493 -46.33568,7.00722z" fill="#252525" stroke="#000000" stroke-width="2" stroke-linecap="round"/><path d="M206.13525,193.84191v-25c0,0 4.77166,3.33334 8.66666,3.33334c4.19199,0 14.31837,-0.33334 25,-0.33334c9.16955,0 18.08162,-1.33333 24.66666,-1.33333c5.04538,0 8.33334,-1.66667 8.33334,-1.66667v25c0,0 -23.62518,-2.66666 -35,-2.66666c-10.81961,0 -31.66666,2.66666 -31.66666,2.66666z" fill="#9ac4ce" stroke="#000000" stroke-width="2" stroke-linecap="butt"/><path d="M285.13525,127.84191c0,0 3.48018,46.25767 3.54073,65.33268c0.02851,8.98028 -1.14828,21.58936 -2.08432,30.16406l-15.4644,14.21372l-63.66724,-0.81625l-15.77971,-16.39802c-0.11903,-1.05997 -0.01516,-2.16321 -0.13549,-3.2975c-0.82859,-7.81037 -1.85801,-17.09325 -1.8822,-23.86487c-0.05933,-16.61329 3.13929,-54.33383 3.13929,-54.33383" fill="none" stroke="#110808" stroke-width="2" stroke-linecap="round"/><path d="" fill="#000000" stroke="#000000" stroke-width="2" stroke-linecap="butt"/><path d="M192.30191,213.09191c0,0 -2,-13.09609 -2,-22c0,-13.005 2,-48.5 2,-48.5l6,9c0,0 2.12919,3.86371 4.48983,10.50361c0.9569,2.69153 3.6232,5.00353 3.60608,8.9968c-0.03507,8.17982 1.83131,16.0764 -0.09592,20.49959c-3.5,8.03289 -6,13 -6,13z" fill="#252525" stroke="#000000" stroke-width="0.5" stroke-linecap="butt"/><path d="M278.67591,205.09191c0,0 -2.5,-4.96711 -6,-13c-1.92722,-4.42319 -0.06085,-12.31977 -0.09591,-20.49959c-0.01712,-3.99327 2.64918,-6.30527 3.60608,-8.9968c2.36064,-6.6399 4.48983,-10.50361 4.48983,-10.50361l6,-9c0,0 2,35.495 2,48.5c0,8.90391 -2,22 -2,22z" data-paper-data="{&quot;index&quot;:null}" fill="#252525" stroke="#000000" stroke-width="0.5" stroke-linecap="butt"/><path d="M272.8019,192.34191l15,-4.5l8.22088,74.60599c0,0 -34.79864,-3.80032 -53.46408,-3.66257c-18.1894,0.13424 -57.13734,4.47882 -57.13734,4.47882l3.38055,-74.92223l18,3.5" fill="none" stroke="#110808" stroke-width="2" stroke-linecap="round"/><path d="M197.66506,84.56444l15.91681,-7.75435h49.79105l16.32493,7.75435z" fill="#000000" stroke="#000000" stroke-width="2" stroke-linecap="butt"/><path d="M179.39155,254.8699l1.44413,-16.94931l116.72756,-0.95271l3.04522,17.35743c0,0 -39.6712,-3.36598 -58.86197,-3.20935c-19.70482,0.16083 -62.35495,3.75393 -62.35495,3.75393z" fill="#9ac4ce" stroke="#110808" stroke-width="2" stroke-linecap="butt"/><path d="M189.48693,271.05573l-3.82002,-6.74121l27.86367,-2.69648l0.22471,9.43769z" fill="#ac0303" stroke="#110808" stroke-width="2" stroke-linecap="butt"/><path d="M267.74141,270.43805l-1.34824,-9.21299l29.43662,2.47178l-3.59531,7.19062z" fill="#ac0303" stroke="#110808" stroke-width="2" stroke-linecap="butt"/><path d="M291.95331,270.83102l-7.86474,11.46006l-84.26512,0.89883l-10.78594,-12.58359" fill="none" stroke="#110808" stroke-width="2" stroke-linecap="round"/><path d="M214.87882,281.84168v-20.22363c0,0 16.25911,-1.57295 24.49306,-1.57295c4.76392,0 12.71187,-0.1839 18.40702,0.2492c4.5064,0.3427 7.20957,0.87434 7.20957,0.87434c0,0 1.87255,6.89 1.91,10.3353c0.03745,3.44571 -1.23588,9.88833 -1.23588,9.88833z" fill="#9ac4ce" stroke="none" stroke-width="0" stroke-linecap="butt"/><path d="M200.72228,282.51579l-8.98828,-10.33652h24.26836l59.54735,9.43769z" fill="#9ac4ce" stroke="none" stroke-width="0" stroke-linecap="butt"/><path d="M264.98848,282.06638v-10.56123l26.29072,-0.44941l-7.19062,10.33652z" fill="#9ac4ce" stroke="none" stroke-width="0" stroke-linecap="butt"/><path d="M205.66583,222.06961c0,0 3.14902,-6.06607 3.26199,-8.73968c0.11172,-2.64412 -2.58787,-7.21451 -2.58787,-7.21451l6.29179,2.24707v12.13417z" fill="#000000" stroke="#000000" stroke-width="2" stroke-linecap="butt"/><path d="M204.767,205.66599c2.48205,0 4.49414,3.67208 4.49414,8.20181c0,4.52974 -2.0121,8.20181 -4.49414,8.20181c-2.48205,0 -4.49414,-3.67208 -4.49414,-8.20181c0,-4.52974 2.0121,-8.20181 4.49414,-8.20181z" fill="#000000" stroke="#000000" stroke-width="2" stroke-linecap="butt"/><path d="M207.68819,214.20486c0,4.21948 -1.60968,7.64004 -3.59531,7.64004c-1.98564,0 -3.59531,-3.42056 -3.59531,-7.64004c0,-4.21948 1.60968,-7.64004 3.59531,-7.64004c1.98564,0 3.59531,3.42056 3.59531,7.64004z" fill="#193f80" stroke="#000000" stroke-width="2" stroke-linecap="butt"/><path d="M264.82021,220.1037v-12.13417l6.29179,-2.24707c0,0 -2.69959,4.57039 -2.58787,7.21451c0.11297,2.67361 3.26199,8.73968 3.26199,8.73968z" data-paper-data="{&quot;index&quot;:null}" fill="#000000" stroke="#000000" stroke-width="2" stroke-linecap="butt"/><path d="M277.17909,213.47484c0,4.52973 -2.01209,8.20181 -4.49414,8.20181c-2.48204,0 -4.49414,-3.67207 -4.49414,-8.20181c0,-4.52973 2.01209,-8.20181 4.49414,-8.20181c2.48204,0 4.49414,3.67207 4.49414,8.20181z" data-paper-data="{&quot;index&quot;:null}" fill="#000000" stroke="#000000" stroke-width="2" stroke-linecap="butt"/><path d="M273.35907,206.17185c1.98564,0 3.59531,3.42056 3.59531,7.64003c0,4.21947 -1.60967,7.64004 -3.59531,7.64004c-1.98564,0 -3.59531,-3.42057 -3.59531,-7.64004c0,-4.21947 1.60968,-7.64003 3.59531,-7.64003z" data-paper-data="{&quot;index&quot;:null}" fill="#193f80" stroke="#000000" stroke-width="2" stroke-linecap="butt"/><path d="M274.20146,213.75544c0,2.35794 -0.25151,4.26943 -0.56177,4.26943c-0.31026,0 -0.56177,-1.91149 -0.56177,-4.26943c0,-2.35794 0.25151,-4.26943 0.56177,-4.26943c0.31026,0 0.56177,1.91149 0.56177,4.26943z" fill="#000000" stroke="#000000" stroke-width="2" stroke-linecap="butt"/><path d="M204.54229,214.31721c0,2.5441 -0.15091,4.60649 -0.33706,4.60649c-0.18615,0 -0.33706,-2.0624 -0.33706,-4.60649c0,-2.5441 0.15091,-4.60649 0.33706,-4.60649c0.18615,0 0.33706,2.0624 0.33706,4.60649z" fill="#000000" stroke="#000000" stroke-width="2" stroke-linecap="butt"/><path d="M212.63174,207.68835l16.85302,2.24707" fill="none" stroke="#000000" stroke-width="2" stroke-linecap="round"/><path d="M263.41552,207.91306l-14.15654,1.79766" fill="none" stroke="#000000" stroke-width="2" stroke-linecap="round"/><path d="M213.75528,220.27194l18.42597,-0.67412" fill="none" stroke="#000000" stroke-width="2" stroke-linecap="round"/><path d="M263.64023,220.49665l-18.20127,-1.34824" fill="none" stroke="#000000" stroke-width="2" stroke-linecap="round"/><path d="M208.81172,236.00143c0,0 -9.81874,-8.32702 -8.82132,-10.85618c1.09138,-2.76742 15.11312,-5.09801 15.11312,-5.09801c0,0 15.48824,2.02236 23.36953,2.02236c3.87605,0 10.09534,-1.38282 15.51201,-1.65227c5.85885,-0.29145 10.7787,0.52874 10.7787,0.52874c0,0 14.21983,3.46587 15.15615,5.70636c1.12582,2.69393 -8.86436,9.34901 -8.86436,9.34901z" fill="#9ac4ce" stroke="none" stroke-width="0" stroke-linecap="butt"/><path d="M191.9587,219.37311l0.22471,-4.04473l7.41533,1.79766c0,0 2.56506,3.45147 3.69586,5.79384c1.74238,3.60922 5.74184,13.75567 5.74184,13.75567z" fill="#9ac4ce" stroke="none" stroke-width="0" stroke-linecap="butt"/><path d="M273.30263,228.36139l0.22471,-5.16826c0,0 2.63273,-4.03835 4.77632,-5.29493c0.96131,-0.56353 -0.20849,-0.76184 1.20566,-1.3125c1.82118,-0.70915 7.05103,-1.03261 7.05103,-1.03261c0,0 -0.37652,6.41496 -1.08955,8.35033c-0.24088,0.65383 -7.2246,4.90738 -7.2246,4.90738z" fill="#9ac4ce" stroke="none" stroke-width="0" stroke-linecap="butt"/><path d="M187.68927,236.22614c0,0 0.22471,-8.18861 0.22471,-13.03301c0,-5.66331 1.34824,-19.10009 1.34824,-19.10009c0,0 0.50273,13.95658 1.5941,15.22985c2.83068,3.30246 15.25893,17.80208 15.25893,17.80208l-12.35888,-0.44941z" fill="#9ac4ce" stroke="none" stroke-width="0" stroke-linecap="butt"/><path d="M275.10029,236.00143c0,0 4.72342,-5.012 6.9967,-7.1229c1.81926,-1.68931 5.58689,-4.56186 5.58689,-4.56186l1.57295,-14.38125l2.92119,26.29072z" fill="#9ac4ce" stroke="none" stroke-width="0" stroke-linecap="butt"/><path d="M186.56573,261.84274v-6.06709c0,0 37.07665,-3.82002 55.27792,-3.82002c18.20127,0 53.25556,3.1459 53.25556,3.1459l0.67412,5.84238c0,0 -37.93125,-2.92119 -56.62616,-2.92119c-17.64715,0 -52.58144,3.82002 -52.58144,3.82002z" fill="#9ac4ce" stroke="none" stroke-width="0" stroke-linecap="butt"/></g></g></svg>