<svg version="1.1" xmlns="http://www.w3.org/2000/svg" xmlns:xlink="http://www.w3.org/1999/xlink" width="707.11112" height="558" viewBox="0,0,707.11112,558"><g transform="translate(107.66667,99)"><g data-paper-data="{&quot;isPaintingLayer&quot;:true}" fill-rule="nonzero" stroke-linecap="butt" stroke-linejoin="miter" stroke-miterlimit="10" stroke-dasharray="" stroke-dashoffset="0" style="mix-blend-mode: normal"><path d="M225.00001,459v-87.72753c10.0366,-0.73071 20.00825,-2.27145 30,-3.60879v91.33632z" fill="#877f5b" stroke="none" stroke-width="0"/><path d="M225.00001,314.31483c3.28257,-0.71212 6.54767,-1.56515 9.87456,-1.98247c2.39717,-0.3007 4.83558,0.20557 7.24757,0.06707c3.0135,-0.17303 5.98445,-0.86756 9,-1c1.29361,-0.05681 2.5862,-0.09898 3.87787,-0.1281v33.77764c-9.99577,1.31522 -19.96691,2.86568 -30,3.66249z" fill="#877f5b" stroke="none" stroke-width="0"/><path d="M225.00001,235.54142c5.89738,0.02942 11.83504,-0.5545 17.7025,-0.15306c2.35153,0.16089 4.64757,0.85291 7,1c1.76231,0.11019 3.53026,0.03651 5.2975,-0.01065v52.54237c-2.93488,0.00262 -4.96372,0.00697 -5.12213,0.0138c-3.01567,0.12986 -5.98698,0.81889 -9,1c-2.91231,0.17505 -5.85727,-0.29376 -8.75243,0.06707c-2.40218,0.29939 -4.7638,0.88024 -7.12544,1.45114z" fill="#877f5b" stroke="none" stroke-width="0"/><path d="M225.00001,142.41666c10,0 20,0 30,0v71.5497c-1.23549,0.03603 -2.47047,0.05557 -3.7025,-0.0214c-2.35244,-0.14697 -4.64796,-0.8469 -7,-1c-6.39025,-0.41596 -12.89099,0.35738 -19.2975,0.15111z" fill="#877f5b" stroke="none" stroke-width="0"/><path d="M225.00001,51.96729c2.59138,-0.75245 5.20269,-1.38515 7.87456,-1.63493c1.76725,-0.16521 3.55405,0.18915 5.32448,0.06255c5.36115,-0.38336 10.63564,-1.6646 16,-2c0.26686,-0.01668 0.53385,-0.03266 0.80095,-0.04794v71.53133c-2.49998,0.01082 -5.00013,0.03835 -7.5,0.03835c-7.5,0 -15,0 -22.5,0z" fill="#877f5b" stroke="none" stroke-width="0"/><path d="M225.00001,-99h30v124.81584c-0.73382,0.0361 -1.46686,0.07681 -2.19905,0.12256c-5.36438,0.33517 -10.63879,1.61748 -16,2c-2.21963,0.15837 -4.46235,-0.16923 -6.67552,0.06255c-1.73884,0.1821 -3.44254,0.49836 -5.12544,0.89197z" fill="#877f5b" stroke="none" stroke-width="0"/><path d="M-107.66666,402.38889v-404h333.02778v404z" fill="#2d2d2d" stroke="none" stroke-width="0"/><path d="M254.02779,417.38889v-419.66667h345.41667v419.66667z" fill="#2d2d2d" stroke="none" stroke-width="0"/><path d="M223.53705,52.64814v-28h34v28z" fill="#2d2d2d" stroke="none" stroke-width="0"/><path d="M223.53705,142.31481v-23h33.33333v23z" fill="#2d2d2d" stroke="none" stroke-width="0"/><path d="M221.20371,236.98148v-24.33333h47.66667v24.33333z" fill="#2d2d2d" stroke="none" stroke-width="0"/><path d="M222.20371,314.64814v-27.66667h35.33333v27.66667z" fill="#2d2d2d" stroke="none" stroke-width="0"/><path d="M223.53705,371.98148v-28.33333h38.66667v28.33333z" fill="#2d2d2d" stroke="none" stroke-width="0"/><path d="M-31.95832,446.16666v-524h58v524z" fill="#959595" stroke="#000000" stroke-width="7.5"/><path d="M456.04168,452.16666v-524h58v524z" fill="#959595" stroke="#000000" stroke-width="7.5"/><path d="M-33.49999,8.16666v-46h56v46z" fill="#959595" stroke="#000000" stroke-width="1.5"/><path d="M-30.49999,55.16665v-46h56v46z" fill="#959595" stroke="#000000" stroke-width="1.5"/><path d="M-29.49999,102.16666v-46h56v46z" fill="#959595" stroke="#000000" stroke-width="1.5"/><path d="M-29.49999,148.16666v-46h56v46z" fill="#959595" stroke="#000000" stroke-width="1.5"/><path d="M-30.49999,193.16666v-46h56v46z" fill="#959595" stroke="#000000" stroke-width="1.5"/><path d="M-30.49999,237.16666v-46h56v46z" fill="#959595" stroke="#000000" stroke-width="1.5"/><path d="M-29.49999,282.16666v-46h56v46z" fill="#959595" stroke="#000000" stroke-width="1.5"/><path d="M-30.49999,329.16666v-46h56v46z" fill="#959595" stroke="#000000" stroke-width="1.5"/><path d="M-31.49999,375.16666v-46h56v46z" fill="#959595" stroke="#000000" stroke-width="1.5"/><path d="M458.5,46.16666v-46h56v46z" fill="#959595" stroke="#000000" stroke-width="1.5"/><path d="M458.5,91.16666v-46h56v46z" fill="#959595" stroke="#000000" stroke-width="1.5"/><path d="M459.5,138.16666v-46h56v46z" fill="#959595" stroke="#000000" stroke-width="1.5"/><path d="M458.5,185.16666v-46h56v46z" fill="#959595" stroke="#000000" stroke-width="1.5"/><path d="M457.5,232.16666v-46h56v46z" fill="#959595" stroke="#000000" stroke-width="1.5"/><path d="M458.5,277.16666v-46h56v46z" fill="#959595" stroke="#000000" stroke-width="1.5"/><path d="M454.5,324.16666v-46h56v46z" fill="#959595" stroke="#000000" stroke-width="1.5"/><path d="M457.5,369.16666v-46h56v46z" fill="#959595" stroke="#000000" stroke-width="1.5"/></g></g></svg>