<svg version="1.1" xmlns="http://www.w3.org/2000/svg" xmlns:xlink="http://www.w3.org/1999/xlink" width="606.25001" height="558" viewBox="0,0,606.25001,558"><g transform="translate(75.83334,99)"><g data-paper-data="{&quot;isPaintingLayer&quot;:true}" fill-rule="nonzero" stroke-linecap="butt" stroke-linejoin="miter" stroke-miterlimit="10" stroke-dasharray="" stroke-dashoffset="0" style="mix-blend-mode: normal"><path d="M225.00001,459v-158.29573c3.02925,-0.03735 6.05136,-0.12783 9.0604,-0.30158c3.34439,-0.19311 6.65358,-0.84609 10,-1c3.64369,-0.16758 7.29114,-0.16752 10.9396,-0.1239v159.72121z" fill="#877f5b" stroke="none" stroke-width="0"/><path d="M225.00001,228.32136c3.45724,-0.19359 6.91439,-0.41124 10.27244,0.02812c3.04721,0.3987 5.94056,1.70972 9,2c3.55975,0.33775 7.15003,-0.00702 10.72756,0.00515v46.67819c-7.35076,0.15246 -14.65835,0.45383 -22.0604,0.8978c-2.63641,0.15813 -5.28455,0.24642 -7.9396,0.28786z" fill="#877f5b" stroke="none" stroke-width="0"/><path d="M225.00001,150.41666c5.16667,0 10.33333,0 15.5,0c4.63982,0 9.90728,-0.7101 14.5,-0.10127v57.60803c-2.76142,0.08207 -5.52714,0.32291 -8.27244,0.06042c-3.05923,-0.29251 -5.94871,-1.63387 -9,-2c-4.17153,-0.50055 -8.47706,0.01653 -12.72756,0.18165z" fill="#877f5b" stroke="none" stroke-width="0"/><path d="M225.00001,60.41666c2.16667,0 4.33333,0 6.5,0c3.37523,0 7.2881,-0.54555 10.62544,-0.08429c1.36143,0.18816 2.63473,0.84209 4,1c2.17642,0.25173 4.42563,-0.4981 6.57251,-0.06098c0.79726,0.16233 1.52974,0.57863 2.30205,0.83053v65.66536c-4.78677,-0.24272 -9.78356,0.14938 -14.5,0.14938c-5.16667,0 -10.33333,0 -15.5,0z" fill="#877f5b" stroke="none" stroke-width="0"/><path d="M225.00001,-99h30v137.9539c-2.03588,-0.05708 -4.1053,0.32626 -6.12544,0.04705c-1.36143,-0.18816 -2.63473,-0.84209 -4,-1c-6.4466,-0.74563 -13.19049,-0.58119 -19.87456,-0.35998z" fill="#877f5b" stroke="none" stroke-width="0"/><path d="M-75.83334,436.38889v-442.66667h300.66667v442.66667z" fill="#2d2d2d" stroke="none" stroke-width="0"/><path d="M255.16668,450.41666v-458.58334h275.25v458.58334z" fill="#2d2d2d" stroke="none" stroke-width="0"/><path d="M224.33333,62.38889v-24.66667h32v24.66667z" fill="#2d2d2d" stroke="none" stroke-width="0"/><path d="M223.66668,151.05555v-24h32.66667v24z" fill="#2d2d2d" stroke="none" stroke-width="0"/><path d="M224.33333,232.38889v-27.33333h33.33333v27.33333z" fill="#2d2d2d" stroke="none" stroke-width="0"/><path d="M222.66668,301.72222v-26h35.66667v26z" fill="#2d2d2d" stroke="none" stroke-width="0"/><text transform="translate(245.12888,36.3584) rotate(-88.50029) scale(0.43482,0.49642) skewX(0.39903)" font-size="40" xml:space="preserve" fill="#adadad" fill-rule="nonzero" stroke="none" stroke-width="1" stroke-linecap="butt" stroke-linejoin="miter" stroke-miterlimit="10" stroke-dasharray="" stroke-dashoffset="0" font-family="Marker" font-weight="normal" text-anchor="start" style="mix-blend-mode: normal"><tspan x="0" dy="0">東京</tspan></text><path d="M-31.95833,446.16666v-524h58v524z" fill="#959595" stroke="#000000" stroke-width="7.5"/><path d="M456.04167,452.16666v-524h58v524z" fill="#959595" stroke="#000000" stroke-width="7.5"/><path d="M-30.5,81.16666v-46h56v46z" fill="none" stroke="#000000" stroke-width="1.5"/><path d="M-31.5,126.16666v-46h56v46z" fill="#959595" stroke="#000000" stroke-width="1.5"/><path d="M-30.5,172.16666v-46h56v46z" fill="#959595" stroke="#000000" stroke-width="1.5"/><path d="M-29.5,219.16666v-46h56v46z" fill="#959595" stroke="#000000" stroke-width="1.5"/><path d="M-30.5,266.16666v-46h56v46z" fill="#959595" stroke="#000000" stroke-width="1.5"/><path d="M-29.5,313.16666v-46h56v46z" fill="#959595" stroke="#000000" stroke-width="1.5"/><path d="M-30.5,360.16666v-46h56v46z" fill="#959595" stroke="#000000" stroke-width="1.5"/><path d="M-29.5,407.16666v-46h56v46z" fill="#959595" stroke="#000000" stroke-width="1.5"/><path d="M-30.5,34.16665v-46h56v46z" fill="#959595" stroke="#000000" stroke-width="1.5"/><path d="M457.5,20.16666v-46h56v46z" fill="#959595" stroke="#000000" stroke-width="1.5"/><path d="M459.5,65.16665v-46h56v46z" fill="#959595" stroke="#000000" stroke-width="1.5"/><path d="M459.5,113.16666v-46h56v46z" fill="#959595" stroke="#000000" stroke-width="1.5"/><path d="M458.5,160.16666v-46h56v46z" fill="#959595" stroke="#000000" stroke-width="1.5"/><path d="M459.5,206.16666v-46h56v46z" fill="#959595" stroke="#000000" stroke-width="1.5"/><path d="M460.5,252.16666v-46h56v46z" fill="#959595" stroke="#000000" stroke-width="1.5"/><path d="M456.5,298.16666v-46h56v46z" fill="#959595" stroke="#000000" stroke-width="1.5"/><path d="M458.5,345.16666v-46h56v46z" fill="#959595" stroke="#000000" stroke-width="1.5"/></g></g></svg>