<svg version="1.1" xmlns="http://www.w3.org/2000/svg" xmlns:xlink="http://www.w3.org/1999/xlink" width="704.55708" height="574.58084" viewBox="0,0,704.55708,574.58084"><g transform="translate(152.89041,113.19483)"><g data-paper-data="{&quot;isPaintingLayer&quot;:true}" fill-rule="nonzero" stroke-linecap="butt" stroke-linejoin="miter" stroke-miterlimit="10" stroke-dasharray="" stroke-dashoffset="0" style="mix-blend-mode: normal"><path d="M225,459v-139.47081c9.9832,0.3433 19.99084,0.9681 30,1.71269v137.75812z" fill="#877f5b" stroke="none" stroke-width="0"/><path d="M225,286.98705c9.99982,-0.20385 19.99987,-0.39742 30,-0.58652v12.28865c-10.00944,-0.73278 -20.01678,-1.34219 -30,-1.67224z" fill="#877f5b" stroke="none" stroke-width="0"/><path d="M225,226.06049c10.00065,-0.28196 20.00254,-0.66102 30,-1.12776v38.95849c-10.00014,0.18733 -20.00021,0.37925 -30,0.5826z" fill="#877f5b" stroke="none" stroke-width="0"/><path d="M225,153.66639c9.47256,-0.06819 18.95587,-0.47995 28.20425,-0.25363c0.59875,0.01465 1.19732,0.03405 1.79575,0.05729v48.93778c-9.99724,0.47297 -19.99916,0.85744 -30,1.14357z" fill="#877f5b" stroke="none" stroke-width="0"/><path d="M225,93.92729c5.26621,-0.17621 10.53614,-0.36778 15.83045,-0.51549c4.72045,-0.1317 9.44389,-0.22726 14.16955,-0.29411v37.83827c-0.40134,-0.01376 -0.80276,-0.02566 -1.20425,-0.03542c-9.595,-0.23325 -19.19758,0.09331 -28.79575,0.13348z" fill="#877f5b" stroke="none" stroke-width="0"/><path d="M225,-99h30v169.61967c-4.94607,0.06734 -9.88984,0.16519 -14.83045,0.30185c-5.07422,0.14035 -10.12408,0.32368 -15.16955,0.49469z" fill="#877f5b" stroke="none" stroke-width="0"/><path d="M255,454.72222v-544.66667h296.66667v544.66667z" fill="#2d2d2d" stroke="none" stroke-width="0"/><path d="M188.93607,457.72222c0,0 -252.95369,27.86705 -311.70074,-70.10856c-29.67972,-49.49847 -3.96882,-93.65359 -3.96882,-127.99285c0,-16.82376 25.51076,-84.7278 5.97631,-105.69207c-45.95657,-49.32036 -39.99445,-190.36032 1.2312,-226.89741c29.38746,-26.04525 308.46205,-40.22616 308.46205,-40.22616h36.39726v570.91704z" fill="#2d2d2d" stroke="none" stroke-width="0"/><path d="M224.66667,94.38889v-24.66667h31.33333v24.66667z" fill="#2d2d2d" stroke="none" stroke-width="0"/><path d="M224,155.05555v-25.33333h33.66667v25.33333z" fill="#2d2d2d" stroke="none" stroke-width="0"/><path d="M222.33333,226.72222v-25h36.66667v25z" fill="#2d2d2d" stroke="none" stroke-width="0"/><path d="M224,287.38889v-23.33333h35.66667v23.33333z" fill="#2d2d2d" stroke="none" stroke-width="0"/><path d="M224,323.05555v-26.33333h36.66667v26.33333z" fill="#2d2d2d" stroke="none" stroke-width="0"/><path d="M-31.95833,446.16666v-524h58v524z" fill="#959595" stroke="#000000" stroke-width="7.5"/><path d="M456.04167,452.16666v-524h58v524z" fill="#959595" stroke="#000000" stroke-width="7.5"/><path d="M-31.5,28.16666v-46h56v46z" fill="#959595" stroke="#000000" stroke-width="1.5"/><path d="M-32.5,75.16665v-46h56v46z" fill="#959595" stroke="#000000" stroke-width="1.5"/><path d="M-30.5,121.16666v-46h56v46z" fill="#959595" stroke="#000000" stroke-width="1.5"/><path d="M-30.5,168.16666v-46h56v46z" fill="#959595" stroke="#000000" stroke-width="1.5"/><path d="M-30.5,213.16666v-46h56v46z" fill="#959595" stroke="#000000" stroke-width="1.5"/><path d="M-29.5,259.16666v-46h56v46z" fill="#959595" stroke="#000000" stroke-width="1.5"/><path d="M-28.5,307.16666v-46h56v46z" fill="#959595" stroke="#000000" stroke-width="1.5"/><path d="M-31.5,354.16666v-46h56v46z" fill="#959595" stroke="#000000" stroke-width="1.5"/><path d="M459.5,8.16665v-46h56v46z" fill="#959595" stroke="#000000" stroke-width="1.5"/><path d="M458.5,55.16666v-46h56v46z" fill="#959595" stroke="#000000" stroke-width="1.5"/><path d="M457.5,101.16666v-46h56v46z" fill="#959595" stroke="#000000" stroke-width="1.5"/><path d="M458.5,149.16666v-46h56v46z" fill="#959595" stroke="#000000" stroke-width="1.5"/><path d="M459.5,195.16666v-46h56v46z" fill="#959595" stroke="#000000" stroke-width="1.5"/><path d="M458.5,241.16666v-46h56v46z" fill="#959595" stroke="#000000" stroke-width="1.5"/><path d="M457.5,288.16666v-46h56v46z" fill="#959595" stroke="#000000" stroke-width="1.5"/><path d="M456.5,336.16666v-46h56v46z" fill="#959595" stroke="#000000" stroke-width="1.5"/><path d="M457.5,384.16666v-46h56v46z" fill="#959595" stroke="#000000" stroke-width="1.5"/></g></g></svg>