<svg version="1.1" xmlns="http://www.w3.org/2000/svg" xmlns:xlink="http://www.w3.org/1999/xlink" width="580" height="77.75" viewBox="0,0,580,77.75"><g transform="translate(65.5,-18.22915)"><g data-paper-data="{&quot;isPaintingLayer&quot;:true}" fill-rule="nonzero" stroke-linejoin="miter" stroke-miterlimit="10" stroke-dasharray="" stroke-dashoffset="0" style="mix-blend-mode: normal"><path d="M-43.5,21.97916h544v73h-451.90314c-3.92885,-1.86559 -9.46934,-1.39085 -13.51352,-1.31596c-11.28965,0.20907 -23.05015,0.59703 -34.33333,1c-1.88036,0.06715 -3.96224,-0.0061 -5.98814,0.20284c-8.71035,-0.11775 -17.44191,-0.14516 -26.29454,0.11312h-2.73862c-2.44164,-0.05501 -5.89337,-0.18194 -9.22869,-0.05194z" fill="#171027" stroke="none" stroke-width="NaN" stroke-linecap="butt"/><path d="M49.5,72.97916c0,7.44633 -1.46532,14.54063 -4.11554,20.99449c-3.40239,-0.64704 -7.27159,-0.36655 -10.30112,-0.31045c-11.28965,0.20907 -23.05015,0.59703 -34.33333,1c-1.88036,0.06715 -3.96224,-0.0061 -5.98814,0.20284c-8.86358,-0.11982 -17.74912,-0.1461 -26.76186,0.12702c-2.26835,0.06874 -7.73519,-0.29933 -12.65186,-0.00984c-0.97821,-0.18206 -2.05846,-0.17432 -3.0148,-0.32349c-1.31453,-0.20503 -2.47731,-0.26868 -3.51762,-0.20516c-2.77652,-6.58169 -4.31571,-13.84367 -4.31571,-21.4754c0,-29.82337 23.50505,-54 52.5,-54c28.99495,0 52.5,24.17663 52.5,54z" fill="#171027" stroke="#b7b7b7" stroke-width="1.5" stroke-linecap="butt"/><path d="" fill="#003030" stroke="#b7b7b7" stroke-width="1.5" stroke-linecap="butt"/><path d="M-64.5,93.97916l81.43965,0.1409l29.34757,0.05078l467.21279,0.80833" fill="none" stroke="#000000" stroke-width="2" stroke-linecap="round"/><path d="M37.32236,89.49653c1.4843,0.01094 7.5943,-1.2665 7.5943,2.5c0,1.67024 -1.18349,2.43905 -2.5,2.5c-3.86173,0.17879 -7.84397,-0.09185 -11.66667,0c-1.64871,0.03961 -4.11727,1.08644 -4.9355,-0.34546c-0.73685,-0.43488 -1.23116,-1.23699 -1.23116,-2.15454c0,-1.38071 1.11929,-2.5 2.5,-2.5c0.20257,0 0.39951,0.0241 0.58811,0.06957c2.86552,-0.90547 6.68416,-0.09143 9.65091,-0.06957z" fill="#171027" stroke="none" stroke-width="0.5" stroke-linecap="butt"/><path d="M-16.91667,93.82986l95.5,0.5" fill="none" stroke="#000000" stroke-width="2" stroke-linecap="round"/></g></g></svg>