<svg version="1.1" xmlns="http://www.w3.org/2000/svg" xmlns:xlink="http://www.w3.org/1999/xlink" width="629.04166" height="558.00001" viewBox="0,0,629.04166,558.00001"><g transform="translate(35.70833,99)"><g data-paper-data="{&quot;isPaintingLayer&quot;:true}" fill-rule="nonzero" stroke-linecap="butt" stroke-linejoin="miter" stroke-miterlimit="10" stroke-dasharray="" stroke-dashoffset="0" style="mix-blend-mode: normal"><path d="M225,459v-119.01981c10.00866,-0.58143 20.0079,-1.61742 30,-2.31455v121.33437z" fill="#877f5b" stroke="none" stroke-width="0"/><path d="M225,285.59615c6.325,-0.45243 12.6479,-0.95393 18.98327,-1.18988c3.67078,-0.13671 7.34347,-0.22105 11.01673,-0.28844v30.99733c-9.98512,0.67121 -19.99059,1.75999 -30,2.3636z" fill="#877f5b" stroke="none" stroke-width="0"/><path d="M225,216.57517c10.00243,0.09478 20.00094,0.23448 30,0.42548v44.62127c-3.99555,0.06969 -7.99056,0.15591 -11.98327,0.30512c-6.01273,0.2247 -12.01405,0.69188 -18.01673,1.12631z" fill="#877f5b" stroke="none" stroke-width="0"/><path d="M225,163.27947c9.99805,0.71844 20.00277,1.7339 30,2.43741v28.2988c-1.59862,-0.03562 -3.19715,-0.06811 -4.79556,-0.09716c-8.39592,-0.1526 -16.79938,-0.17667 -25.20444,-0.15355z" fill="#877f5b" stroke="none" stroke-width="0"/><path d="M225,123.71047c3.01412,0.30726 6.03354,0.58018 9.06826,0.69789c6.95113,0.26963 13.95147,-0.09263 20.93174,-0.17538v18.96148c-10.00029,-0.69854 -20.00115,-1.68501 -30,-2.39304z" fill="#877f5b" stroke="none" stroke-width="0"/><path d="M225,80.63662c10.01253,0.16029 20.04074,0.29371 30,-0.06105v21.19731c-6.69344,0.09845 -13.39918,0.4062 -20.06826,0.15207c-3.33062,-0.12692 -6.63486,-0.42091 -9.93174,-0.7459z" fill="#877f5b" stroke="none" stroke-width="0"/><path d="M225,-99h30v157.06164c-9.95372,0.38939 -19.98453,0.25371 -30,0.08628z" fill="#877f5b" stroke="none" stroke-width="0"/><path d="M0.33333,448.38889v-538h224.66667v538z" fill="#2d2d2d" stroke="none" stroke-width="0"/><path d="M255,448.05555v-537.66667h338.33333v537.66667z" fill="#2d2d2d" stroke="none" stroke-width="0"/><path d="M224.33333,81.38889v-24h35v24z" fill="#2d2d2d" stroke="none" stroke-width="0"/><path d="M224.66667,124.72222v-24.33333h33.66667v24.33333z" fill="#2d2d2d" stroke="none" stroke-width="0"/><path d="M223.33333,166.72222v-26.33333h34.66667v26.33333z" fill="#2d2d2d" stroke="none" stroke-width="0"/><path d="M223.33333,217.38889v-24.33333h35.33333v24.33333z" fill="#2d2d2d" stroke="none" stroke-width="0"/><path d="M223,285.72222v-25h35.66667v25z" fill="#2d2d2d" stroke="none" stroke-width="0"/><path d="M223.66667,339.72222v-28.66667h41.66667v28.66667z" fill="#2d2d2d" stroke="none" stroke-width="0"/><path d="M-31.95833,446.16666v-524h58v524z" fill="#959595" stroke="#000000" stroke-width="7.5"/><path d="M456.04167,452.16666v-524h58v524z" fill="#959595" stroke="#000000" stroke-width="7.5"/><path d="M-29.5,34.16666v-46h56v46z" fill="#959595" stroke="#000000" stroke-width="1.5"/><path d="M-31.5,81.16665v-46h56v46z" fill="#959595" stroke="#000000" stroke-width="1.5"/><path d="M-32.5,129.16666v-46h56v46z" fill="#959595" stroke="#000000" stroke-width="1.5"/><path d="M-31.5,177.16666v-46h56v46z" fill="#959595" stroke="#000000" stroke-width="1.5"/><path d="M-32.5,223.16666v-46h56v46z" fill="#959595" stroke="#000000" stroke-width="1.5"/><path d="M-29.5,270.16666v-46h56v46z" fill="#959595" stroke="#000000" stroke-width="1.5"/><path d="M-30.5,316.16666v-46h56v46z" fill="#959595" stroke="#000000" stroke-width="1.5"/><path d="M-31.5,364.16666v-46h56v46z" fill="#959595" stroke="#000000" stroke-width="1.5"/><path d="M458.5,83.16665v-46h56v46z" fill="#959595" stroke="#000000" stroke-width="1.5"/><path d="M458.5,129.16666v-46h56v46z" fill="#959595" stroke="#000000" stroke-width="1.5"/><path d="M458.5,174.16666v-46h56v46z" fill="#959595" stroke="#000000" stroke-width="1.5"/><path d="M459.5,220.16666v-46h56v46z" fill="#959595" stroke="#000000" stroke-width="1.5"/><path d="M458.5,266.16666v-46h56v46z" fill="#959595" stroke="#000000" stroke-width="1.5"/><path d="M458.5,313.16666v-46h56v46z" fill="#959595" stroke="#000000" stroke-width="1.5"/><path d="M458.5,360.16666v-46h56v46z" fill="#959595" stroke="#000000" stroke-width="1.5"/></g></g></svg>