<svg version="1.1" xmlns="http://www.w3.org/2000/svg" xmlns:xlink="http://www.w3.org/1999/xlink" width="717.08334" height="558" viewBox="0,0,717.08334,558"><g transform="translate(118,99)"><g data-paper-data="{&quot;isPaintingLayer&quot;:true}" fill-rule="nonzero" stroke-linecap="butt" stroke-linejoin="miter" stroke-miterlimit="10" stroke-dasharray="" stroke-dashoffset="0" style="mix-blend-mode: normal"><path d="M225,459v-169.10243c10.02747,0.73412 19.96567,2.16888 30,3.30904v165.79339z" fill="#877f5b" stroke="none" stroke-width="0"/><path d="M225,212.68378c9.9931,0.3643 19.99634,1.02978 30,1.53879v56.3354c-10.0261,-1.17029 -19.96703,-2.49772 -30,-3.18092z" fill="#877f5b" stroke="none" stroke-width="0"/><path d="M225,95.87649c0.92117,0.126 1.84554,0.26149 2.77405,0.40698c9.18722,1.43956 18.16109,4.00726 27.22595,6.1193v89.46137c-10.01286,-0.49924 -20.03534,-1.23375 -30,-1.64322z" fill="#877f5b" stroke="none" stroke-width="0"/><path d="M225,-99h30v178.46563c-7.90633,-1.94267 -15.76974,-4.14321 -23.77405,-5.41579c-2.08509,-0.3315 -4.15851,-0.61766 -6.22595,-0.86293z" fill="#877f5b" stroke="none" stroke-width="0"/><path d="M-118,428.83333v-442.5h343v442.5z" fill="#2d2d2d" stroke="none" stroke-width="0"/><path d="M255.16667,424.05555v-439.94445h343.91667v439.94445z" fill="#2d2d2d" stroke="none" stroke-width="0"/><path d="M223.36111,103.1111v-31.66667h35.33333v31.66667z" fill="#2d2d2d" stroke="none" stroke-width="0"/><path d="M223.69444,214.77777v-24.66667h36.33333v24.66667z" fill="#2d2d2d" stroke="none" stroke-width="0"/><path d="M223.36111,295.1111v-28.33333h37.33333v28.33333z" fill="#2d2d2d" stroke="none" stroke-width="0"/><path d="M-31.95833,446.16666v-524h58v524z" fill="#959595" stroke="#000000" stroke-width="7.5"/><path d="M456.04167,452.16666v-524h58v524z" fill="#959595" stroke="#000000" stroke-width="7.5"/><path d="M-31.5,126.16666v-46h56v46z" fill="#959595" stroke="#000000" stroke-width="1.5"/><path d="M-31.5,78.16665v-46h56v46z" fill="#959595" stroke="#000000" stroke-width="1.5"/><path d="M-32.5,31.16665v-46h56v46z" fill="#959595" stroke="#000000" stroke-width="1.5"/><path d="M-32.5,173.16666v-46h56v46z" fill="#959595" stroke="#000000" stroke-width="1.5"/><path d="M-32.5,219.16666v-46h56v46z" fill="#959595" stroke="#000000" stroke-width="1.5"/><path d="M-32.5,265.16666v-46h56v46z" fill="#959595" stroke="#000000" stroke-width="1.5"/><path d="M-32.5,313.16666v-46h56v46z" fill="#959595" stroke="#000000" stroke-width="1.5"/><path d="M-31.5,361.16666v-46h56v46z" fill="#959595" stroke="#000000" stroke-width="1.5"/><path d="M-29.5,408.16666v-46h56v46z" fill="#959595" stroke="#000000" stroke-width="1.5"/><path d="M457.5,2.16665v-46h56v46z" fill="#959595" stroke="#000000" stroke-width="1.5"/><path d="M458.5,48.16666v-46h56v46z" fill="#959595" stroke="#000000" stroke-width="1.5"/><path d="M457.5,93.16666v-46h56v46z" fill="#959595" stroke="#000000" stroke-width="1.5"/><path d="M456.5,140.16666v-46h56v46z" fill="#959595" stroke="#000000" stroke-width="1.5"/><path d="M457.5,186.16666v-46h56v46z" fill="#959595" stroke="#000000" stroke-width="1.5"/><path d="M459.5,232.16666v-46h56v46z" fill="#959595" stroke="#000000" stroke-width="1.5"/><path d="M458.5,278.16666v-46h56v46z" fill="#959595" stroke="#000000" stroke-width="1.5"/><path d="M458.5,325.16666v-46h56v46z" fill="#959595" stroke="#000000" stroke-width="1.5"/><path d="M457.5,370.16666v-46h56v46z" fill="#959595" stroke="#000000" stroke-width="1.5"/></g></g></svg>