<svg version="1.1" xmlns="http://www.w3.org/2000/svg" xmlns:xlink="http://www.w3.org/1999/xlink" width="591.375" height="558" viewBox="0,0,591.375,558"><g transform="translate(35.70833,99)"><g data-paper-data="{&quot;isPaintingLayer&quot;:true}" fill-rule="nonzero" stroke-linecap="butt" stroke-linejoin="miter" stroke-miterlimit="10" stroke-dasharray="" stroke-dashoffset="0" style="mix-blend-mode: normal"><path d="M225,459v-133.06029c1.89917,-0.64732 3.78859,-1.33156 5.74668,-1.74968c2.62088,-0.55964 5.33131,-0.55339 7.99567,-0.84219c5.48499,-0.59453 10.84408,-1.24785 16.25765,-1.62185v137.274z" fill="#877f5b" stroke="none" stroke-width="0"/><path d="M225,244.55599c3.18389,-0.05789 6.35829,-0.13784 9.5,-0.13933c6.84094,-0.00325 13.66591,-0.64909 20.5,-0.96701v55.94132c-6.22627,0.34831 -12.44971,0.88 -18.74235,1.59449c-3.3356,0.37873 -6.71754,0.47467 -10.00433,1.15781c-0.4207,0.08744 -0.83821,0.18732 -1.25332,0.29669z" fill="#877f5b" stroke="none" stroke-width="0"/><path d="M225,180.99862c3.99611,0.11354 7.99367,0.22635 11.99021,0.40648c6.00941,0.27086 12.00963,0.89611 18.00979,1.52225v38.49559c-6.83541,0.27322 -13.67939,0.49711 -20.5,0.49372c-2.97578,-0.00148 -6.19819,0.18874 -9.5,0.34544z" fill="#877f5b" stroke="none" stroke-width="0"/><path d="M225,93.00166c5.64669,0.39592 11.32121,0.53804 16.92715,1.30451c3.52201,0.48154 6.93002,1.67465 10.4643,2.05574c0.86734,0.09352 1.73714,0.13915 2.60855,0.15396v63.82708c-5.65989,-0.58688 -11.32056,-1.15493 -16.99021,-1.41473c-4.33035,-0.19843 -8.67007,-0.2974 -13.00979,-0.4057z" fill="#877f5b" stroke="none" stroke-width="0"/><path d="M225,15.63902c0.53177,-0.12212 1.06634,-0.2253 1.60855,-0.27712c3.92192,-0.37479 7.89221,0.33183 11.81936,0.01642c2.02108,-0.16233 3.98002,-0.82455 6,-1c3.50953,-0.30482 7.0535,0.17217 10.57209,0.07368v59.56097c-0.13054,-0.01273 -0.26103,-0.02656 -0.39145,-0.04156c-3.22271,-0.37069 -6.32133,-1.50708 -9.5357,-1.94426c-6.64863,-0.90427 -13.39317,-0.93441 -20.07285,-1.55494z" fill="#877f5b" stroke="none" stroke-width="0"/><path d="M225,-99h30v90.8923c-0.20192,0.03266 -0.40468,0.05963 -0.60855,0.07911c-3.92192,0.37479 -7.89221,-0.33183 -11.81936,-0.01642c-2.02108,0.16233 -3.98002,0.82455 -6,1c-3.84225,0.33372 -7.72578,-0.26964 -11.57209,-0.02899z" fill="#877f5b" stroke="none" stroke-width="0"/><path d="M-1.46296,417.38889v-506.66667h226.66667v506.66667z" fill="#2d2d2d" stroke="none" stroke-width="0"/><path d="M255,419.72222v-508.66667h300.66667v508.66667z" fill="#2d2d2d" stroke="none" stroke-width="0"/><path d="M224.33333,15.72222v-24.66667h36v24.66667z" fill="#2d2d2d" stroke="none" stroke-width="0"/><path d="M225,97.72222v-27.33333h39v27.33333z" fill="#2d2d2d" stroke="none" stroke-width="0"/><path d="M223,184.05555v-26.33333h33.33333v26.33333z" fill="#2d2d2d" stroke="none" stroke-width="0"/><path d="M223.66667,245.72222v-24.66667h34v24.66667z" fill="#2d2d2d" stroke="none" stroke-width="0"/><path d="M223.66667,326.38889v-27.33333h33.33333v27.33333z" fill="#2d2d2d" stroke="none" stroke-width="0"/><path d="M-31.95833,446.16666v-524h58v524z" fill="#959595" stroke="#000000" stroke-width="7.5"/><path d="M456.04167,452.16666v-524h58v524z" fill="#959595" stroke="#000000" stroke-width="7.5"/><path d="M-31.5,40.16666v-46h56v46z" fill="#959595" stroke="#000000" stroke-width="1.5"/><path d="M-30.5,86.16666v-46h56v46z" fill="#959595" stroke="#000000" stroke-width="1.5"/><path d="M-32.5,131.16666v-46h56v46z" fill="#959595" stroke="#000000" stroke-width="1.5"/><path d="M-32.5,176.16666v-46h56v46z" fill="#959595" stroke="#000000" stroke-width="1.5"/><path d="M-33.5,222.16666v-46h56v46z" fill="#959595" stroke="#000000" stroke-width="1.5"/><path d="M-29.5,270.16666v-46h56v46z" fill="#959595" stroke="#000000" stroke-width="1.5"/><path d="M-31.5,318.16666v-46h56v46z" fill="#959595" stroke="#000000" stroke-width="1.5"/><path d="M-31.5,366.16666v-46h56v46z" fill="#959595" stroke="#000000" stroke-width="1.5"/><path d="M-31.5,413.16666v-46h56v46z" fill="#959595" stroke="#000000" stroke-width="1.5"/><path d="M457.5,72.16665v-46h56v46z" fill="#959595" stroke="#000000" stroke-width="1.5"/><path d="M457.5,164.16666v-46h56v46z" fill="#959595" stroke="#000000" stroke-width="1.5"/><path d="M458.5,118.16666v-46h56v46z" fill="#959595" stroke="#000000" stroke-width="1.5"/><path d="M456.5,211.16666v-46h56v46z" fill="#959595" stroke="#000000" stroke-width="1.5"/><path d="M456.5,256.16666v-46h56v46z" fill="#959595" stroke="#000000" stroke-width="1.5"/><path d="M455.5,303.16666v-46h56v46z" fill="#959595" stroke="#000000" stroke-width="1.5"/><path d="M454.5,350.16666v-46h56v46z" fill="#959595" stroke="#000000" stroke-width="1.5"/><path d="M456.5,396.16666v-46h56v46z" fill="#959595" stroke="#000000" stroke-width="1.5"/></g></g></svg>